ffmpeg started on 2016-12-05 at 01:00:16
Report written to "Output/x264/results/ffmpeg/sintelveryfast4000k.log"
Command line:
Tools/ffmpeg/ffmpeg -benchmark -y -i Input/y4m/sintel.y4m -c:v libx264 -preset veryfast -b:v 4000k -an Output/x264/encoded/sintelveryfast4000k.mkv
ffmpeg version N-82227-gdb23fde Copyright (c) 2000-2016 the FFmpeg developers
  built with gcc 5.4.0 (Ubuntu 5.4.0-6ubuntu1~16.04.2) 20160609
  configuration: --prefix=/home/jaroslav/ffmpeg_build --pkg-config-flags=--static --extra-cflags=-I/home/jaroslav/ffmpeg_build/include --extra-ldflags=-L/home/jaroslav/ffmpeg_build/lib --bindir=/home/jaroslav/bin --enable-gpl --enable-libass --enable-libfdk-aac --enable-libfreetype --enable-libmp3lame --enable-libopus --enable-libtheora --enable-libvorbis --enable-libvpx --enable-libx264 --enable-libx265 --enable-nvenc --enable-libmfx --enable-libxvid --enable-libgsm --enable-libopencore-amrnb --enable-version3 --enable-nonfree
  libavutil      55. 35.100 / 55. 35.100
  libavcodec     57. 66.101 / 57. 66.101
  libavformat    57. 57.100 / 57. 57.100
  libavdevice    57.  2.100 / 57.  2.100
  libavfilter     6. 66.100 /  6. 66.100
  libswscale      4.  3.100 /  4.  3.100
  libswresample   2.  4.100 /  2.  4.100
  libpostproc    54.  2.100 / 54.  2.100
Input #0, yuv4mpegpipe, from 'Input/y4m/sintel.y4m':
  Duration: 00:00:20.83, start: 0.000000, bitrate: 2057307 kb/s
    Stream #0:0: Video: rawvideo (I420 / 0x30323449), yuv420p(progressive), 4096x1744, SAR 1:1 DAR 256:109, 24 fps, 24 tbr, 24 tbn, 24 tbc
[libx264 @ 0x3e8d1c0] using SAR=1/1
[libx264 @ 0x3e8d1c0] using cpu capabilities: MMX2 SSE2Fast SSSE3 SSE4.2 AVX FMA3 AVX2 LZCNT BMI2
[libx264 @ 0x3e8d1c0] profile High, level 5.1
[libx264 @ 0x3e8d1c0] 264 - core 148 - H.264/MPEG-4 AVC codec - Copyleft 2003-2016 - http://www.videolan.org/x264.html - options: cabac=1 ref=1 deblock=1:0:0 analyse=0x3:0x113 me=hex subme=2 psy=1 psy_rd=1.00:0.00 mixed_ref=0 me_range=16 chroma_me=1 trellis=0 8x8dct=1 cqm=0 deadzone=21,11 fast_pskip=1 chroma_qp_offset=0 threads=6 lookahead_threads=2 sliced_threads=0 nr=0 decimate=1 interlaced=0 bluray_compat=0 constrained_intra=0 bframes=3 b_pyramid=2 b_adapt=1 b_bias=0 direct=1 weightb=1 open_gop=0 weightp=1 keyint=250 keyint_min=24 scenecut=40 intra_refresh=0 rc_lookahead=10 rc=abr mbtree=1 bitrate=4000 ratetol=1.0 qcomp=0.60 qpmin=0 qpmax=69 qpstep=4 ip_ratio=1.40 aq=1:1.00
Output #0, matroska, to 'Output/x264/encoded/sintelveryfast4000k.mkv':
  Metadata:
    encoder         : Lavf57.57.100
    Stream #0:0: Video: h264 (libx264) (H264 / 0x34363248), yuv420p, 4096x1744 [SAR 1:1 DAR 256:109], q=-1--1, 4000 kb/s, 24 fps, 1k tbn, 24 tbc
    Metadata:
      encoder         : Lavc57.66.101 libx264
    Side data:
      cpb: bitrate max/min/avg: 0/0/4000000 buffer size: 0 vbv_delay: -1
Stream mapping:
  Stream #0:0 -> #0:0 (rawvideo (native) -> h264 (libx264))
Press [q] to stop, [?] for help
frame=   13 fps=0.0 q=0.0 size=       0kB time=00:00:00.00 bitrate=N/A speed=   0x    frame=   21 fps= 20 q=33.0 size=       1kB time=-00:00:00.08 bitrate=N/A speed=N/A    frame=   28 fps= 17 q=49.0 size=       1kB time=00:00:00.20 bitrate=  28.1kbits/s speed=0.128x    frame=   34 fps= 15 q=48.0 size=       1kB time=00:00:00.45 bitrate=  12.8kbits/s speed=0.209x    frame=   38 fps= 13 q=49.0 size=       1kB time=00:00:00.62 bitrate=   9.4kbits/s speed=0.211x    frame=   48 fps= 13 q=48.0 size=       1kB time=00:00:01.04 bitrate=   5.6kbits/s speed=0.284x    frame=   62 fps= 15 q=47.0 size=       1kB time=00:00:01.62 bitrate=   3.6kbits/s speed=0.389x    frame=   74 fps=9.1 q=46.0 size=       1kB time=00:00:02.12 bitrate=   2.8kbits/s speed=0.262x    frame=   75 fps=8.3 q=46.0 size=       1kB time=00:00:02.16 bitrate=   2.7kbits/s speed=0.241x    frame=   88 fps=9.2 q=46.0 size=       1kB time=00:00:02.70 bitrate=   2.2kbits/s speed=0.284x    frame=   99 fps=9.9 q=46.0 size=       1kB time=00:00:03.16 bitrate=   1.9kbits/s speed=0.315x    frame=  110 fps= 10 q=46.0 size=       1kB time=00:00:03.62 bitrate=   1.6kbits/s speed=0.343x    frame=  115 fps= 10 q=43.0 size=       1kB time=00:00:03.83 bitrate=   1.5kbits/s speed=0.345x    frame=  129 fps= 11 q=45.0 size=    2262kB time=00:00:04.41 bitrate=4193.7kbits/s speed=0.379x    frame=  142 fps= 12 q=45.0 size=    2262kB time=00:00:04.95 bitrate=3736.2kbits/s speed=0.406x    frame=  154 fps= 12 q=45.0 size=    2262kB time=00:00:05.45 bitrate=3394.0kbits/s speed=0.429x    frame=  166 fps= 13 q=45.0 size=    2262kB time=00:00:05.95 bitrate=3109.2kbits/s speed=0.45x    frame=  179 fps= 13 q=45.0 size=    3310kB time=00:00:06.50 bitrate=4170.4kbits/s speed=0.472x    frame=  191 fps= 13 q=44.0 size=    3310kB time=00:00:07.00 bitrate=3872.5kbits/s speed=0.49x    frame=  201 fps= 14 q=44.0 size=    3310kB time=00:00:07.41 bitrate=3654.8kbits/s speed=0.501x    frame=  214 fps= 14 q=43.0 size=    3723kB time=00:00:07.95 bitrate=3831.8kbits/s speed=0.519x    frame=  226 fps= 14 q=43.0 size=    3723kB time=00:00:08.45 bitrate=3605.3kbits/s speed=0.533x    frame=  240 fps= 15 q=43.0 size=    3723kB time=00:00:09.04 bitrate=3372.5kbits/s speed=0.552x    frame=  253 fps= 15 q=42.0 size=    3723kB time=00:00:09.58 bitrate=3182.1kbits/s speed=0.567x    frame=  266 fps= 15 q=42.0 size=    3723kB time=00:00:10.12 bitrate=3011.8kbits/s speed=0.58x    frame=  278 fps= 15 q=42.0 size=    3723kB time=00:00:10.62 bitrate=2870.1kbits/s speed=0.588x    frame=  295 fps= 16 q=41.0 size=    4884kB time=00:00:11.33 bitrate=3530.0kbits/s speed=0.608x    frame=  310 fps= 16 q=41.0 size=    4884kB time=00:00:11.95 bitrate=3345.5kbits/s speed=0.625x    frame=  316 fps= 16 q=41.0 size=    4884kB time=00:00:12.20 bitrate=3277.0kbits/s speed=0.621x    frame=  333 fps= 17 q=40.0 size=    4884kB time=00:00:12.91 bitrate=3097.1kbits/s speed=0.64x    frame=  351 fps= 17 q=39.0 size=    4884kB time=00:00:13.66 bitrate=2927.2kbits/s speed=0.66x    frame=  369 fps= 17 q=38.0 size=    4884kB time=00:00:14.41 bitrate=2774.9kbits/s speed=0.679x    frame=  381 fps= 18 q=37.0 size=    4884kB time=00:00:14.91 bitrate=2681.9kbits/s speed=0.686x    frame=  395 fps= 18 q=37.0 size=    5895kB time=00:00:15.50 bitrate=3115.5kbits/s speed=0.696x    frame=  409 fps= 18 q=37.0 size=    5895kB time=00:00:16.08 bitrate=3002.6kbits/s speed=0.704x    frame=  422 fps= 18 q=37.0 size=    5895kB time=00:00:16.62 bitrate=2904.7kbits/s speed=0.712x    frame=  435 fps= 18 q=37.0 size=    5895kB time=00:00:17.16 bitrate=2813.0kbits/s speed=0.719x    frame=  450 fps= 18 q=37.0 size=    6978kB time=00:00:17.79 bitrate=3212.9kbits/s speed=0.729x    frame=  458 fps= 18 q=37.0 size=    6978kB time=00:00:18.12 bitrate=3153.9kbits/s speed=0.726x    frame=  465 fps= 18 q=37.0 size=    6978kB time=00:00:18.41 bitrate=3103.9kbits/s speed=0.721x    frame=  479 fps= 18 q=36.0 size=    6978kB time=00:00:19.00 bitrate=3008.6kbits/s speed=0.729x    frame=  485 fps= 18 q=36.0 size=    6978kB time=00:00:19.25 bitrate=2969.6kbits/s speed=0.725x    frame=  491 fps= 18 q=36.0 size=    6978kB time=00:00:19.50 bitrate=2931.5kbits/s speed=0.72x    frame=  500 fps= 18 q=36.0 size=    6978kB time=00:00:19.87 bitrate=2876.2kbits/s speed=0.72x    frame=  500 fps= 18 q=-1.0 Lsize=    8378kB time=00:00:20.70 bitrate=3314.1kbits/s speed=0.743x    
video:8373kB audio:0kB subtitle:0kB other streams:0kB global headers:0kB muxing overhead: 0.055084%
bench: utime=64.496s
bench: maxrss=927640kB
[libx264 @ 0x3e8d1c0] frame I:8     Avg QP:32.36  size: 66154
[libx264 @ 0x3e8d1c0] frame P:284   Avg QP:37.62  size: 21402
[libx264 @ 0x3e8d1c0] frame B:208   Avg QP:34.85  size:  9452
[libx264 @ 0x3e8d1c0] consecutive B-frames: 41.2%  8.0%  6.0% 44.8%
[libx264 @ 0x3e8d1c0] mb I  I16..4: 44.8% 54.0%  1.2%
[libx264 @ 0x3e8d1c0] mb P  I16..4: 15.9% 15.2%  0.0%  P16..4:  6.5%  1.6%  0.4%  0.0%  0.0%    skip:60.3%
[libx264 @ 0x3e8d1c0] mb B  I16..4:  2.0%  1.7%  0.0%  B16..8:  7.4%  1.2%  0.0%  direct: 0.9%  skip:86.8%  L0:45.1% L1:51.1% BI: 3.8%
[libx264 @ 0x3e8d1c0] final ratefactor: 34.65
[libx264 @ 0x3e8d1c0] 8x8 transform intra:49.0% inter:62.0%
[libx264 @ 0x3e8d1c0] coded y,uvDC,uvAC intra: 11.6% 12.9% 0.3% inter: 0.7% 1.5% 0.0%
[libx264 @ 0x3e8d1c0] i16 v,h,dc,p: 52% 29% 11%  9%
[libx264 @ 0x3e8d1c0] i8 v,h,dc,ddl,ddr,vr,hd,vl,hu: 13% 19% 58%  2%  1%  1%  2%  1%  3%
[libx264 @ 0x3e8d1c0] i4 v,h,dc,ddl,ddr,vr,hd,vl,hu: 21% 24% 14%  7%  8%  6%  8%  5%  7%
[libx264 @ 0x3e8d1c0] i8c dc,h,v,p: 84%  8%  8%  0%
[libx264 @ 0x3e8d1c0] Weighted P-Frames: Y:0.4% UV:0.0%
[libx264 @ 0x3e8d1c0] kb/s:3292.20
